<mxfile host="www.draw.io" modified="2019-11-14T17:10:22.571Z" agent="Mozilla/5.0 (Macintosh; Intel Mac OS X 10_14_6) AppleWebKit/537.36 (KHTML, like Gecko) Chrome/78.0.3904.70 Safari/537.36" etag="UUyck1fDu-2hZTCiQQ3-" version="12.2.6" type="github" pages="4">
  <diagram name="Page-1" id="74e2e168-ea6b-b213-b513-2b3c1d86103e">
    <mxGraphModel dx="1243" dy="1501" grid="1" gridSize="10" guides="1" tooltips="1" connect="1" arrows="1" fold="1" page="1" pageScale="1" pageWidth="1100" pageHeight="850" background="#ffffff" math="0" shadow="0">
      <root>
        <mxCell id="0"/>
        <mxCell id="1" parent="0"/>
        <mxCell id="77e6c97f196da883-1" value="CCIE信用卡数据引擎" style="swimlane;html=1;childLayout=stackLayout;startSize=20;rounded=0;shadow=0;labelBackgroundColor=none;strokeColor=#000000;strokeWidth=1;fillColor=#ffffff;fontFamily=Verdana;fontSize=8;fontColor=#000000;align=center;" parent="1" vertex="1">
          <mxGeometry x="70" y="-140" width="1121" height="740" as="geometry"/>
        </mxCell>
        <mxCell id="9AOLdwwiTeYKFx4a9tRz-8" value="EXTERNAL" style="swimlane;html=1;startSize=20;" parent="77e6c97f196da883-1" vertex="1">
          <mxGeometry y="20" width="160" height="720" as="geometry"/>
        </mxCell>
        <mxCell id="9AOLdwwiTeYKFx4a9tRz-9" value="MQ" style="rounded=1;whiteSpace=wrap;html=1;shadow=0;labelBackgroundColor=none;strokeColor=#000000;strokeWidth=1;fillColor=#ffffff;fontFamily=Verdana;fontSize=8;fontColor=#000000;align=center;" parent="9AOLdwwiTeYKFx4a9tRz-8" vertex="1">
          <mxGeometry x="30" y="205" width="100" height="60" as="geometry"/>
        </mxCell>
        <mxCell id="9AOLdwwiTeYKFx4a9tRz-54" value="API" style="rounded=1;whiteSpace=wrap;html=1;shadow=0;labelBackgroundColor=none;strokeColor=#000000;strokeWidth=1;fillColor=#ffffff;fontFamily=Verdana;fontSize=8;fontColor=#000000;align=center;" parent="9AOLdwwiTeYKFx4a9tRz-8" vertex="1">
          <mxGeometry x="30" y="305" width="100" height="60" as="geometry"/>
        </mxCell>
        <mxCell id="9AOLdwwiTeYKFx4a9tRz-57" value="MQ" style="rounded=1;whiteSpace=wrap;html=1;shadow=0;labelBackgroundColor=none;strokeColor=#000000;strokeWidth=1;fillColor=#ffffff;fontFamily=Verdana;fontSize=8;fontColor=#000000;align=center;" parent="9AOLdwwiTeYKFx4a9tRz-8" vertex="1">
          <mxGeometry x="30" y="435" width="100" height="60" as="geometry"/>
        </mxCell>
        <mxCell id="77e6c97f196da883-2" value="RDCS" style="swimlane;html=1;startSize=20;" parent="77e6c97f196da883-1" vertex="1">
          <mxGeometry x="160" y="20" width="161" height="720" as="geometry"/>
        </mxCell>
        <mxCell id="77e6c97f196da883-8" value="DATABASE&lt;br&gt;SCANNER" style="rounded=1;whiteSpace=wrap;html=1;shadow=0;labelBackgroundColor=none;strokeColor=#000000;strokeWidth=1;fillColor=#ffffff;fontFamily=Verdana;fontSize=8;fontColor=#000000;align=center;" parent="77e6c97f196da883-2" vertex="1">
          <mxGeometry x="30" y="90" width="100" height="60" as="geometry"/>
        </mxCell>
        <mxCell id="77e6c97f196da883-3" value="CONSUMER" style="swimlane;html=1;startSize=20;" parent="77e6c97f196da883-1" vertex="1">
          <mxGeometry x="321" y="20" width="160" height="720" as="geometry"/>
        </mxCell>
        <mxCell id="9AOLdwwiTeYKFx4a9tRz-4" value="" style="edgeStyle=orthogonalEdgeStyle;rounded=0;orthogonalLoop=1;jettySize=auto;html=1;" parent="77e6c97f196da883-3" source="77e6c97f196da883-11" target="77e6c97f196da883-9" edge="1">
          <mxGeometry relative="1" as="geometry"/>
        </mxCell>
        <mxCell id="77e6c97f196da883-11" value="INPUT&lt;br&gt;PROCESSOR" style="rounded=1;whiteSpace=wrap;html=1;shadow=0;labelBackgroundColor=none;strokeColor=#000000;strokeWidth=1;fillColor=#ffffff;fontFamily=Verdana;fontSize=8;fontColor=#000000;align=center;" parent="77e6c97f196da883-3" vertex="1">
          <mxGeometry x="30" y="140" width="100" height="60" as="geometry"/>
        </mxCell>
        <mxCell id="9AOLdwwiTeYKFx4a9tRz-5" value="" style="edgeStyle=orthogonalEdgeStyle;rounded=0;orthogonalLoop=1;jettySize=auto;html=1;" parent="77e6c97f196da883-3" source="77e6c97f196da883-9" target="9AOLdwwiTeYKFx4a9tRz-2" edge="1">
          <mxGeometry relative="1" as="geometry"/>
        </mxCell>
        <mxCell id="77e6c97f196da883-9" value="ROUTER" style="rounded=1;whiteSpace=wrap;html=1;shadow=0;labelBackgroundColor=none;strokeColor=#000000;strokeWidth=1;fillColor=#ffffff;fontFamily=Verdana;fontSize=8;fontColor=#000000;align=center;" parent="77e6c97f196da883-3" vertex="1">
          <mxGeometry x="30" y="240" width="100" height="60" as="geometry"/>
        </mxCell>
        <mxCell id="9AOLdwwiTeYKFx4a9tRz-2" value="OUTPUT&lt;br&gt;PROCESSOR" style="rounded=1;whiteSpace=wrap;html=1;shadow=0;labelBackgroundColor=none;strokeColor=#000000;strokeWidth=1;fillColor=#ffffff;fontFamily=Verdana;fontSize=8;fontColor=#000000;align=center;" parent="77e6c97f196da883-3" vertex="1">
          <mxGeometry x="30" y="435" width="100" height="60" as="geometry"/>
        </mxCell>
        <mxCell id="tssTY5_V55jJpcKWYizu-1" value="EVENT&lt;br&gt;PROCESSOR" style="rounded=1;whiteSpace=wrap;html=1;shadow=0;labelBackgroundColor=none;strokeColor=#000000;strokeWidth=1;fillColor=#ffffff;fontFamily=Verdana;fontSize=8;fontColor=#000000;align=center;" parent="77e6c97f196da883-3" vertex="1">
          <mxGeometry x="30" y="325" width="100" height="60" as="geometry"/>
        </mxCell>
        <mxCell id="nX9Z5AqFMC2l883IT-i0-8" value="" style="edgeStyle=orthogonalEdgeStyle;rounded=0;orthogonalLoop=1;jettySize=auto;html=1;" edge="1" parent="77e6c97f196da883-3" source="nX9Z5AqFMC2l883IT-i0-7" target="77e6c97f196da883-11">
          <mxGeometry relative="1" as="geometry"/>
        </mxCell>
        <mxCell id="nX9Z5AqFMC2l883IT-i0-7" value="REPLAYER" style="rounded=1;whiteSpace=wrap;html=1;shadow=0;labelBackgroundColor=none;strokeColor=#000000;strokeWidth=1;fillColor=#ffffff;fontFamily=Verdana;fontSize=8;fontColor=#000000;align=center;" vertex="1" parent="77e6c97f196da883-3">
          <mxGeometry x="30" y="40" width="100" height="60" as="geometry"/>
        </mxCell>
        <mxCell id="nX9Z5AqFMC2l883IT-i0-10" style="edgeStyle=orthogonalEdgeStyle;rounded=1;html=1;labelBackgroundColor=none;startArrow=none;startFill=0;startSize=5;endArrow=classicThin;endFill=1;endSize=5;jettySize=auto;orthogonalLoop=1;strokeColor=#000000;strokeWidth=1;fontFamily=Verdana;fontSize=8;fontColor=#000000;entryX=1;entryY=0.5;entryDx=0;entryDy=0;exitX=1;exitY=0.5;exitDx=0;exitDy=0;" edge="1" parent="77e6c97f196da883-3" source="nX9Z5AqFMC2l883IT-i0-7" target="77e6c97f196da883-9">
          <mxGeometry relative="1" as="geometry">
            <mxPoint x="520" y="215.66666666666674" as="sourcePoint"/>
            <mxPoint x="140" y="350.33333333333326" as="targetPoint"/>
            <Array as="points">
              <mxPoint x="149" y="70"/>
              <mxPoint x="149" y="270"/>
            </Array>
          </mxGeometry>
        </mxCell>
        <mxCell id="77e6c97f196da883-4" value="REALTIME-WS" style="swimlane;html=1;startSize=20;" parent="77e6c97f196da883-1" vertex="1">
          <mxGeometry x="481" y="20" width="160" height="720" as="geometry"/>
        </mxCell>
        <mxCell id="77e6c97f196da883-12" value="FLOW RULE" style="rounded=1;whiteSpace=wrap;html=1;shadow=0;labelBackgroundColor=none;strokeColor=#000000;strokeWidth=1;fillColor=#ffffff;fontFamily=Verdana;fontSize=8;fontColor=#000000;align=center;" parent="77e6c97f196da883-4" vertex="1">
          <mxGeometry x="30" y="325" width="100" height="60" as="geometry"/>
        </mxCell>
        <mxCell id="77e6c97f196da883-15" value="DECISION RULE" style="rounded=1;whiteSpace=wrap;html=1;shadow=0;labelBackgroundColor=none;strokeColor=#000000;strokeWidth=1;fillColor=#ffffff;fontFamily=Verdana;fontSize=8;fontColor=#000000;align=center;" parent="77e6c97f196da883-4" vertex="1">
          <mxGeometry x="30" y="225" width="100" height="60" as="geometry"/>
        </mxCell>
        <mxCell id="77e6c97f196da883-26" style="edgeStyle=orthogonalEdgeStyle;rounded=1;html=1;labelBackgroundColor=none;startArrow=none;startFill=0;startSize=5;endArrow=classicThin;endFill=1;endSize=5;jettySize=auto;orthogonalLoop=1;strokeColor=#000000;strokeWidth=1;fontFamily=Verdana;fontSize=8;fontColor=#000000;exitX=0.5;exitY=1;exitDx=0;exitDy=0;entryX=0.5;entryY=0;entryDx=0;entryDy=0;" parent="77e6c97f196da883-1" source="77e6c97f196da883-8" target="9AOLdwwiTeYKFx4a9tRz-9" edge="1">
          <mxGeometry relative="1" as="geometry"/>
        </mxCell>
        <mxCell id="77e6c97f196da883-28" style="edgeStyle=orthogonalEdgeStyle;rounded=1;html=1;labelBackgroundColor=none;startArrow=none;startFill=0;startSize=5;endArrow=classicThin;endFill=1;endSize=5;jettySize=auto;orthogonalLoop=1;strokeColor=#000000;strokeWidth=1;fontFamily=Verdana;fontSize=8;fontColor=#000000;entryX=0;entryY=0.75;entryDx=0;entryDy=0;exitX=1;exitY=0.75;exitDx=0;exitDy=0;" parent="77e6c97f196da883-1" source="tssTY5_V55jJpcKWYizu-1" target="77e6c97f196da883-12" edge="1">
          <mxGeometry relative="1" as="geometry">
            <mxPoint x="451" y="290" as="sourcePoint"/>
            <Array as="points">
              <mxPoint x="500" y="390"/>
              <mxPoint x="500" y="390"/>
            </Array>
          </mxGeometry>
        </mxCell>
        <mxCell id="9AOLdwwiTeYKFx4a9tRz-55" style="edgeStyle=orthogonalEdgeStyle;rounded=1;html=1;labelBackgroundColor=none;startArrow=none;startFill=0;startSize=5;endArrow=classicThin;endFill=1;endSize=5;jettySize=auto;orthogonalLoop=1;strokeColor=#000000;strokeWidth=1;fontFamily=Verdana;fontSize=8;fontColor=#000000;exitX=1;exitY=0.5;exitDx=0;exitDy=0;entryX=0;entryY=0.5;entryDx=0;entryDy=0;" parent="77e6c97f196da883-1" source="9AOLdwwiTeYKFx4a9tRz-54" target="77e6c97f196da883-11" edge="1">
          <mxGeometry relative="1" as="geometry">
            <mxPoint x="511" y="285" as="sourcePoint"/>
            <mxPoint x="360" y="225" as="targetPoint"/>
            <Array as="points">
              <mxPoint x="330" y="355"/>
              <mxPoint x="330" y="190"/>
            </Array>
          </mxGeometry>
        </mxCell>
        <mxCell id="9AOLdwwiTeYKFx4a9tRz-56" style="edgeStyle=orthogonalEdgeStyle;rounded=1;html=1;labelBackgroundColor=none;startArrow=none;startFill=0;startSize=5;endArrow=classicThin;endFill=1;endSize=5;jettySize=auto;orthogonalLoop=1;strokeColor=#000000;strokeWidth=1;fontFamily=Verdana;fontSize=8;fontColor=#000000;exitX=1;exitY=0.5;exitDx=0;exitDy=0;entryX=0;entryY=0.5;entryDx=0;entryDy=0;" parent="77e6c97f196da883-1" source="9AOLdwwiTeYKFx4a9tRz-9" target="77e6c97f196da883-11" edge="1">
          <mxGeometry relative="1" as="geometry">
            <mxPoint x="140" y="365" as="sourcePoint"/>
            <mxPoint x="411" y="180" as="targetPoint"/>
            <Array as="points">
              <mxPoint x="330" y="255"/>
              <mxPoint x="330" y="190"/>
            </Array>
          </mxGeometry>
        </mxCell>
        <mxCell id="9AOLdwwiTeYKFx4a9tRz-59" style="edgeStyle=orthogonalEdgeStyle;rounded=1;html=1;labelBackgroundColor=none;startArrow=none;startFill=0;startSize=5;endArrow=classicThin;endFill=1;endSize=5;jettySize=auto;orthogonalLoop=1;strokeColor=#000000;strokeWidth=1;fontFamily=Verdana;fontSize=8;fontColor=#000000;exitX=0;exitY=0.5;exitDx=0;exitDy=0;entryX=1;entryY=0.5;entryDx=0;entryDy=0;" parent="77e6c97f196da883-1" source="9AOLdwwiTeYKFx4a9tRz-2" target="9AOLdwwiTeYKFx4a9tRz-57" edge="1">
          <mxGeometry relative="1" as="geometry">
            <mxPoint x="140" y="470" as="sourcePoint"/>
            <mxPoint x="411" y="285" as="targetPoint"/>
            <Array as="points">
              <mxPoint x="300" y="485"/>
              <mxPoint x="300" y="485"/>
            </Array>
          </mxGeometry>
        </mxCell>
        <mxCell id="9AOLdwwiTeYKFx4a9tRz-66" style="edgeStyle=orthogonalEdgeStyle;rounded=1;html=1;labelBackgroundColor=none;startArrow=none;startFill=0;startSize=5;endArrow=classicThin;endFill=1;endSize=5;jettySize=auto;orthogonalLoop=1;strokeColor=#000000;strokeWidth=1;fontFamily=Verdana;fontSize=8;fontColor=#000000;exitX=0.5;exitY=1;exitDx=0;exitDy=0;entryX=1;entryY=0.5;entryDx=0;entryDy=0;" parent="77e6c97f196da883-1" source="9AOLdwwiTeYKFx4a9tRz-61" target="9AOLdwwiTeYKFx4a9tRz-60" edge="1">
          <mxGeometry relative="1" as="geometry">
            <mxPoint x="511" y="300" as="sourcePoint"/>
            <mxPoint x="810" y="305" as="targetPoint"/>
            <Array as="points">
              <mxPoint x="881" y="375"/>
            </Array>
          </mxGeometry>
        </mxCell>
        <mxCell id="9AOLdwwiTeYKFx4a9tRz-65" style="edgeStyle=orthogonalEdgeStyle;rounded=1;html=1;labelBackgroundColor=none;startArrow=none;startFill=0;startSize=5;endArrow=classicThin;endFill=1;endSize=5;jettySize=auto;orthogonalLoop=1;strokeColor=#000000;strokeWidth=1;fontFamily=Verdana;fontSize=8;fontColor=#000000;entryX=1;entryY=0.25;entryDx=0;entryDy=0;exitX=0;exitY=0.5;exitDx=0;exitDy=0;" parent="77e6c97f196da883-1" source="9AOLdwwiTeYKFx4a9tRz-61" target="tssTY5_V55jJpcKWYizu-1" edge="1">
          <mxGeometry relative="1" as="geometry">
            <mxPoint x="880" y="195" as="sourcePoint"/>
            <mxPoint x="510" y="275" as="targetPoint"/>
            <Array as="points">
              <mxPoint x="490" y="226"/>
              <mxPoint x="490" y="360"/>
            </Array>
          </mxGeometry>
        </mxCell>
        <mxCell id="tssTY5_V55jJpcKWYizu-2" style="edgeStyle=orthogonalEdgeStyle;rounded=1;html=1;labelBackgroundColor=none;startArrow=none;startFill=0;startSize=5;endArrow=classicThin;endFill=1;endSize=5;jettySize=auto;orthogonalLoop=1;strokeColor=#000000;strokeWidth=1;fontFamily=Verdana;fontSize=8;fontColor=#000000;exitX=1;exitY=0.5;exitDx=0;exitDy=0;entryX=0;entryY=0.5;entryDx=0;entryDy=0;" parent="77e6c97f196da883-1" source="tssTY5_V55jJpcKWYizu-1" target="77e6c97f196da883-15" edge="1">
          <mxGeometry relative="1" as="geometry">
            <mxPoint x="450.5" y="375" as="sourcePoint"/>
            <mxPoint x="560.5" y="225" as="targetPoint"/>
            <Array as="points">
              <mxPoint x="500" y="375"/>
              <mxPoint x="500" y="275"/>
            </Array>
          </mxGeometry>
        </mxCell>
        <mxCell id="X4fi9G5PNfgSpJ7aW9XN-4" value="" style="edgeStyle=orthogonalEdgeStyle;rounded=0;orthogonalLoop=1;jettySize=auto;html=1;startArrow=none;startFill=0;" parent="77e6c97f196da883-1" source="9AOLdwwiTeYKFx4a9tRz-61" target="X4fi9G5PNfgSpJ7aW9XN-3" edge="1">
          <mxGeometry relative="1" as="geometry"/>
        </mxCell>
        <mxCell id="77e6c97f196da883-5" value="REALTIME-ENGINE" style="swimlane;html=1;startSize=20;" parent="77e6c97f196da883-1" vertex="1">
          <mxGeometry x="641" y="20" width="160" height="720" as="geometry"/>
        </mxCell>
        <mxCell id="9AOLdwwiTeYKFx4a9tRz-60" value="LABEL&lt;br&gt;RULE" style="rounded=1;whiteSpace=wrap;html=1;shadow=0;labelBackgroundColor=none;strokeColor=#000000;strokeWidth=1;fillColor=#ffffff;fontFamily=Verdana;fontSize=8;fontColor=#000000;align=center;" parent="77e6c97f196da883-5" vertex="1">
          <mxGeometry x="30" y="325" width="100" height="60" as="geometry"/>
        </mxCell>
        <mxCell id="77e6c97f196da883-6" value="REALTIME-DW" style="swimlane;html=1;startSize=20;" parent="77e6c97f196da883-1" vertex="1">
          <mxGeometry x="801" y="20" width="160" height="720" as="geometry"/>
        </mxCell>
        <mxCell id="9AOLdwwiTeYKFx4a9tRz-61" value="ONE SERVICE" style="rounded=1;whiteSpace=wrap;html=1;shadow=0;labelBackgroundColor=none;strokeColor=#000000;strokeWidth=1;fillColor=#ffffff;fontFamily=Verdana;fontSize=8;fontColor=#000000;align=center;" parent="77e6c97f196da883-6" vertex="1">
          <mxGeometry x="30" y="175" width="100" height="60" as="geometry"/>
        </mxCell>
        <mxCell id="77e6c97f196da883-7" value="DISP" style="swimlane;html=1;startSize=20;" parent="77e6c97f196da883-1" vertex="1">
          <mxGeometry x="961" y="20" width="160" height="720" as="geometry"/>
        </mxCell>
        <mxCell id="X4fi9G5PNfgSpJ7aW9XN-3" value="ONE DATA" style="rounded=1;whiteSpace=wrap;html=1;shadow=0;labelBackgroundColor=none;strokeColor=#000000;strokeWidth=1;fillColor=#ffffff;fontFamily=Verdana;fontSize=8;fontColor=#000000;align=center;" parent="77e6c97f196da883-7" vertex="1">
          <mxGeometry x="30" y="175" width="100" height="60" as="geometry"/>
        </mxCell>
      </root>
    </mxGraphModel>
  </diagram>
  <diagram id="RrnXslmxj0kw22n0IAKz" name="Page-2">
    <mxGraphModel dx="932" dy="488" grid="1" gridSize="10" guides="1" tooltips="1" connect="1" arrows="1" fold="1" page="1" pageScale="1" pageWidth="827" pageHeight="1169" math="0" shadow="0">
      <root>
        <mxCell id="IvU9EpXIFTZm0_zdO61G-0"/>
        <mxCell id="IvU9EpXIFTZm0_zdO61G-1" parent="IvU9EpXIFTZm0_zdO61G-0"/>
        <mxCell id="X9OnGKdT5QKYmTLx3bMR-0" value="INPUT&lt;br&gt;PROCESSOR&lt;br&gt;&lt;br&gt;&lt;br&gt;&lt;br&gt;&lt;br&gt;&lt;br&gt;&lt;br&gt;&lt;br&gt;&lt;br&gt;&lt;br&gt;&lt;br&gt;" style="rounded=1;whiteSpace=wrap;html=1;dashed=1;" parent="IvU9EpXIFTZm0_zdO61G-1" vertex="1">
          <mxGeometry x="30" y="10" width="230" height="180" as="geometry"/>
        </mxCell>
        <mxCell id="4bxWFl2vUNwD9Jtad7jr-1" value="通用数据备份、快照" style="rounded=1;whiteSpace=wrap;html=1;" parent="IvU9EpXIFTZm0_zdO61G-1" vertex="1">
          <mxGeometry x="30" y="200" width="280" height="50" as="geometry"/>
        </mxCell>
        <mxCell id="4bxWFl2vUNwD9Jtad7jr-2" value="通用日志监控&lt;br&gt;（CAT）" style="rounded=1;whiteSpace=wrap;html=1;" parent="IvU9EpXIFTZm0_zdO61G-1" vertex="1">
          <mxGeometry x="630" y="20" width="90" height="295" as="geometry"/>
        </mxCell>
        <mxCell id="4bxWFl2vUNwD9Jtad7jr-3" value="源数据加工&lt;br&gt;（格式化/清洗/初筛）" style="rounded=1;whiteSpace=wrap;html=1;" parent="IvU9EpXIFTZm0_zdO61G-1" vertex="1">
          <mxGeometry x="150" y="50" width="90" height="130" as="geometry"/>
        </mxCell>
        <mxCell id="4bxWFl2vUNwD9Jtad7jr-4" value="事件路由" style="rounded=1;whiteSpace=wrap;html=1;" parent="IvU9EpXIFTZm0_zdO61G-1" vertex="1">
          <mxGeometry x="283" y="50" width="90" height="130" as="geometry"/>
        </mxCell>
        <mxCell id="4bxWFl2vUNwD9Jtad7jr-5" value="数据输出&lt;br&gt;（入库/推送）" style="rounded=1;whiteSpace=wrap;html=1;" parent="IvU9EpXIFTZm0_zdO61G-1" vertex="1">
          <mxGeometry x="520" y="50" width="90" height="130" as="geometry"/>
        </mxCell>
        <mxCell id="4bxWFl2vUNwD9Jtad7jr-7" value="源数据接入" style="rounded=1;whiteSpace=wrap;html=1;" parent="IvU9EpXIFTZm0_zdO61G-1" vertex="1">
          <mxGeometry x="50" y="50" width="90" height="130" as="geometry"/>
        </mxCell>
        <mxCell id="4bxWFl2vUNwD9Jtad7jr-9" value="事件处理&lt;br&gt;（数据关联、字段映射、打标签、调用计算规则）" style="rounded=1;whiteSpace=wrap;html=1;" parent="IvU9EpXIFTZm0_zdO61G-1" vertex="1">
          <mxGeometry x="401.5" y="50" width="90" height="130" as="geometry"/>
        </mxCell>
        <mxCell id="uZV8HSnLTifIu20DkNxQ-0" value="ROUTER" style="text;html=1;resizable=0;points=[];autosize=1;align=center;verticalAlign=top;spacingTop=-4;" parent="IvU9EpXIFTZm0_zdO61G-1" vertex="1">
          <mxGeometry x="293" y="20" width="70" height="20" as="geometry"/>
        </mxCell>
        <mxCell id="uZV8HSnLTifIu20DkNxQ-1" value="EVENT&lt;br&gt;PROCESSOR" style="text;html=1;resizable=0;points=[];autosize=1;align=center;verticalAlign=top;spacingTop=-4;" parent="IvU9EpXIFTZm0_zdO61G-1" vertex="1">
          <mxGeometry x="401.5" y="15" width="90" height="30" as="geometry"/>
        </mxCell>
        <mxCell id="uZV8HSnLTifIu20DkNxQ-2" value="OUTPUT&lt;br&gt;PROCESSOR" style="text;html=1;resizable=0;points=[];autosize=1;align=center;verticalAlign=top;spacingTop=-4;" parent="IvU9EpXIFTZm0_zdO61G-1" vertex="1">
          <mxGeometry x="520" y="15" width="90" height="30" as="geometry"/>
        </mxCell>
        <mxCell id="pY_sRm8eTLjLj404glfG-0" value="数据回放" style="rounded=1;whiteSpace=wrap;html=1;" parent="IvU9EpXIFTZm0_zdO61G-1" vertex="1">
          <mxGeometry x="330" y="200" width="280" height="50" as="geometry"/>
        </mxCell>
        <mxCell id="pY_sRm8eTLjLj404glfG-4" value="ElasticSearch、Redis、AeroSpike" style="shape=datastore;whiteSpace=wrap;html=1;align=center;" parent="IvU9EpXIFTZm0_zdO61G-1" vertex="1">
          <mxGeometry x="30" y="260" width="580" height="60" as="geometry"/>
        </mxCell>
      </root>
    </mxGraphModel>
  </diagram>
  <diagram id="EICIjYkw1w4u8L2vJUYA" name="Page-3">
    <mxGraphModel dx="932" dy="488" grid="1" gridSize="10" guides="1" tooltips="1" connect="1" arrows="1" fold="1" page="1" pageScale="1" pageWidth="827" pageHeight="1169" math="0" shadow="0">
      <root>
        <mxCell id="K_XLk1ca43ODohlfoCfL-0"/>
        <mxCell id="K_XLk1ca43ODohlfoCfL-1" parent="K_XLk1ca43ODohlfoCfL-0"/>
        <mxCell id="K_XLk1ca43ODohlfoCfL-3" value="实时数据处理领域" style="rounded=1;whiteSpace=wrap;html=1;" vertex="1" parent="K_XLk1ca43ODohlfoCfL-1">
          <mxGeometry x="130" y="20" width="510" height="60" as="geometry"/>
        </mxCell>
        <mxCell id="K_XLk1ca43ODohlfoCfL-4" value="数据源配置" style="rounded=0;whiteSpace=wrap;html=1;" vertex="1" parent="K_XLk1ca43ODohlfoCfL-1">
          <mxGeometry x="150" y="180" width="100" height="30" as="geometry"/>
        </mxCell>
        <mxCell id="K_XLk1ca43ODohlfoCfL-5" value="&lt;span style=&quot;white-space: normal&quot;&gt;数据接入子域&lt;/span&gt;" style="rounded=1;whiteSpace=wrap;html=1;" vertex="1" parent="K_XLk1ca43ODohlfoCfL-1">
          <mxGeometry x="140" y="100" width="120" height="60" as="geometry"/>
        </mxCell>
        <mxCell id="K_XLk1ca43ODohlfoCfL-6" value="数据对象" style="rounded=0;whiteSpace=wrap;html=1;" vertex="1" parent="K_XLk1ca43ODohlfoCfL-1">
          <mxGeometry x="150" y="230" width="100" height="30" as="geometry"/>
        </mxCell>
        <mxCell id="K_XLk1ca43ODohlfoCfL-7" value="&lt;span style=&quot;white-space: normal&quot;&gt;数据处理子域&lt;/span&gt;" style="rounded=1;whiteSpace=wrap;html=1;" vertex="1" parent="K_XLk1ca43ODohlfoCfL-1">
          <mxGeometry x="320" y="100" width="120" height="60" as="geometry"/>
        </mxCell>
        <mxCell id="K_XLk1ca43ODohlfoCfL-12" value="处理流程" style="rounded=0;whiteSpace=wrap;html=1;" vertex="1" parent="K_XLk1ca43ODohlfoCfL-1">
          <mxGeometry x="330" y="172.5" width="100" height="30" as="geometry"/>
        </mxCell>
        <mxCell id="K_XLk1ca43ODohlfoCfL-13" value="上下文" style="rounded=0;whiteSpace=wrap;html=1;" vertex="1" parent="K_XLk1ca43ODohlfoCfL-1">
          <mxGeometry x="330" y="262.5" width="100" height="30" as="geometry"/>
        </mxCell>
        <mxCell id="K_XLk1ca43ODohlfoCfL-14" value="数据输出子域" style="rounded=1;whiteSpace=wrap;html=1;" vertex="1" parent="K_XLk1ca43ODohlfoCfL-1">
          <mxGeometry x="500" y="100" width="120" height="60" as="geometry"/>
        </mxCell>
        <mxCell id="K_XLk1ca43ODohlfoCfL-15" value="数据源配置" style="rounded=0;whiteSpace=wrap;html=1;" vertex="1" parent="K_XLk1ca43ODohlfoCfL-1">
          <mxGeometry x="510" y="180" width="100" height="30" as="geometry"/>
        </mxCell>
        <mxCell id="K_XLk1ca43ODohlfoCfL-16" value="数据对象" style="rounded=0;whiteSpace=wrap;html=1;" vertex="1" parent="K_XLk1ca43ODohlfoCfL-1">
          <mxGeometry x="510" y="230" width="100" height="30" as="geometry"/>
        </mxCell>
        <mxCell id="7U4YjivAoNIg2i1LAVIP-0" value="加工逻辑" style="rounded=0;whiteSpace=wrap;html=1;" vertex="1" parent="K_XLk1ca43ODohlfoCfL-1">
          <mxGeometry x="330" y="217.5" width="100" height="30" as="geometry"/>
        </mxCell>
      </root>
    </mxGraphModel>
  </diagram>
  <diagram id="4I_G9_OZfaZ53klVVcbU" name="Page-4">
    <mxGraphModel dx="932" dy="488" grid="1" gridSize="10" guides="1" tooltips="1" connect="1" arrows="1" fold="1" page="1" pageScale="1" pageWidth="827" pageHeight="1169" math="0" shadow="0">
      <root>
        <mxCell id="Sm6wDZHAmXWlNj7RumEk-0"/>
        <mxCell id="Sm6wDZHAmXWlNj7RumEk-1" parent="Sm6wDZHAmXWlNj7RumEk-0"/>
      </root>
    </mxGraphModel>
  </diagram>
</mxfile>
